<?xml version="1.0"?>
<svg xmlns="http://www.w3.org/2000/svg" xmlns:xlink="http://www.w3.org/1999/xlink" xmlns:svgjs="http://svgjs.com/svgjs"
    version="1.1" width="196" height="196" x="0" y="0" viewBox="0 0 512 512" style="enable-background:new 0 0 512 512"
    xml:space="preserve" class="">
    <defs>
        <linearGradient id="MyGradient" x2="0%" y2="100%">
            <stop offset="0%" stop-color="#62d362" />
            <stop offset="80%" stop-color="#40508d" />
        </linearGradient>
    </defs>
    <g transform="matrix(-1,0,0,1,511.9989356994629,0)">
        <path xmlns="http://www.w3.org/2000/svg"
            d="m14.106 171.371c18.712-53.891 55.315-100.505 103.066-131.255 9.284-5.981 21.661-3.3 27.644 5.987 5.979 9.287 3.3 21.663-5.987 27.643-40.268 25.931-71.142 65.261-86.935 110.745-3.605 10.535-15.298 15.943-25.454 12.333-10.435-3.622-15.957-15.018-12.334-25.453zm361.065-98.629c52.491 33.83 87.748 88.861 96.73 150.984.546 3.777-1.2 6.453-2.29 7.711-1.13 1.305-3.624 3.494-7.64 3.494h-37.967c-26.536 1.056-26.516 38.953 0 40h37.967c14.548 0 28.354-6.31 37.88-17.312 9.457-10.923 13.699-25.363 11.638-39.618-10.639-73.581-52.427-138.781-114.65-178.882-9.282-5.985-21.661-3.308-27.646 5.977-5.983 9.286-3.307 21.663 5.978 27.646zm110.39 244.301c-10.432-3.621-21.831 1.898-25.454 12.333-26.486 76.28-92.738 130.866-172.9 142.457-3.776.544-6.453-1.201-7.713-2.291-1.305-1.129-3.493-3.624-3.493-7.639v-37.967c-1.056-26.536-38.953-26.516-40 0v37.967c0 14.548 6.31 28.354 17.311 37.879 9.111 7.889 20.67 12.149 32.527 12.149 2.357 0 4.728-.169 7.092-.51 92.133-13.315 174.758-80.804 204.964-168.925 3.622-10.434-1.9-21.83-12.334-25.453zm-303.006 144.995c-76.28-26.486-130.866-92.738-142.457-172.901-.546-3.777 1.2-6.453 2.29-7.711 1.13-1.305 3.624-3.494 7.64-3.494h37.967c26.536-1.056 26.516-38.953 0-40h-37.967c-14.548 0-28.354 6.31-37.88 17.312-9.457 10.923-13.699 25.363-11.638 39.618 6.744 46.643 26.208 90.47 56.288 126.743 29.8 35.934 68.748 62.982 112.636 78.221 10.156 3.609 21.849-1.798 25.454-12.333 3.623-10.436-1.898-21.832-12.333-25.455zm182.445-267.199c0-36.807-39.739-137.67-68.582-174.071-21.245-27.596-61.593-27.603-82.836 0-28.843 36.401-68.582 137.264-68.582 174.071 0 15.593 6.09 24.831 11.199 29.835 4.816 4.717 13.396 10.258 27.121 10.258 23.723-.495 54.798-17.449 71.688-28.333 17.173 11.053 48.065 28.335 71.992 28.333 22.916-.233 38-15.975 38-40.093zm-40 .008c-11.846-1.043-33.186-12.212-49-22.349v-32.567c-1.056-26.536-38.953-26.516-40 0v31.288c-16.044 10.553-38.435 22.511-51 23.629v-.01c-.985-24.861 40.822-128.481 59.935-149.228 2.9-3.662 6.475-5.679 10.065-5.679s7.165 2.017 10.066 5.678c11.126 14.041 26.2 43.573 39.341 77.071 14.149 36.069 20.593 62.689 20.593 72.159z"
            fill="url(#MyGradient)" />
        <script /></g></svg>